<mxfile host="app.diagrams.net" modified="2021-06-01T02:40:00.165Z" agent="5.0 (Macintosh; Intel Mac OS X 10_14_3) AppleWebKit/537.36 (KHTML, like Gecko) Chrome/90.0.4430.212 Safari/537.36" etag="bvMzVfiNrqCc3zOND4XM" version="14.6.11" type="github">
  <diagram id="jk84KoCiqGRbvonOO5nR" name="Page-1">
    <mxGraphModel dx="946" dy="490" grid="0" gridSize="10" guides="1" tooltips="1" connect="1" arrows="1" fold="1" page="1" pageScale="1" pageWidth="500" pageHeight="190" background="#EFF1F3" math="0" shadow="0">
      <root>
        <mxCell id="0" />
        <mxCell id="1" parent="0" />
        <mxCell id="XSbDL2rr6Gyu1OlXZJMn-2" value="&lt;font style=&quot;font-size: 36px&quot;&gt;&lt;font color=&quot;#4a919b&quot;&gt;0:0&lt;/font&gt;:&lt;font color=&quot;#c89932&quot;&gt;0:0&lt;/font&gt;:&lt;font color=&quot;#f19c99&quot;&gt;0:0&lt;/font&gt;:&lt;font color=&quot;#5a6eab&quot;&gt;0:1&amp;nbsp;&lt;/font&gt;&lt;/font&gt;" style="text;html=1;strokeColor=none;fillColor=none;align=center;verticalAlign=middle;whiteSpace=wrap;rounded=0;" parent="1" vertex="1">
          <mxGeometry x="96" y="20" width="324" height="50" as="geometry" />
        </mxCell>
        <mxCell id="XSbDL2rr6Gyu1OlXZJMn-3" value="&lt;font style=&quot;background-color: rgb(239 , 241 , 243) ; font-size: 10px&quot;&gt;&lt;span style=&quot;color: rgb(74 , 145 , 155) ; font-size: 10px&quot;&gt;00000000&lt;/span&gt;&lt;font color=&quot;#4a919b&quot; style=&quot;font-size: 10px&quot;&gt;:00000000&lt;/font&gt;:&lt;span style=&quot;color: rgb(200 , 153 , 50) ; font-size: 10px&quot;&gt;&amp;nbsp;00000000:&lt;/span&gt;&lt;font color=&quot;#c89932&quot; style=&quot;font-size: 10px&quot;&gt;00000000&lt;/font&gt;:&lt;font color=&quot;#f19c99&quot; style=&quot;font-size: 10px&quot;&gt;00000000:&lt;/font&gt;&lt;span style=&quot;color: rgb(241 , 156 , 153) ; font-size: 10px&quot;&gt;00000000&lt;/span&gt;:&lt;span style=&quot;color: rgb(90 , 110 , 171) ; font-size: 10px&quot;&gt;&amp;nbsp;0000000:&lt;/span&gt;&lt;font color=&quot;#5a6eab&quot; style=&quot;font-size: 10px&quot;&gt;00000001&lt;/font&gt;&lt;/font&gt;" style="text;html=1;strokeColor=none;fillColor=none;align=center;verticalAlign=middle;whiteSpace=wrap;rounded=0;" parent="1" vertex="1">
          <mxGeometry x="15" y="70" width="470" height="24" as="geometry" />
        </mxCell>
        <mxCell id="cjVENmCrDsrbWY_3om6L-1" value="&lt;font&gt;&lt;font style=&quot;font-size: 14px&quot;&gt;IPV6&amp;nbsp; 回环地址&lt;br&gt;Loopback Address&lt;/font&gt;&lt;br&gt;&lt;/font&gt;" style="text;html=1;strokeColor=none;fillColor=none;align=center;verticalAlign=middle;whiteSpace=wrap;rounded=0;" parent="1" vertex="1">
          <mxGeometry x="150.63" y="146" width="198.75" height="20" as="geometry" />
        </mxCell>
        <mxCell id="cjVENmCrDsrbWY_3om6L-3" value="&lt;div style=&quot;text-align: left&quot;&gt;&lt;/div&gt;&lt;font style=&quot;font-size: 24px&quot;&gt;&lt;font color=&quot;#67ab9f&quot;&gt;:&lt;/font&gt;&lt;font color=&quot;#f19c99&quot;&gt;:&lt;/font&gt;&lt;font color=&quot;#5a6eab&quot;&gt;1&lt;/font&gt;&lt;/font&gt;" style="text;html=1;strokeColor=none;fillColor=none;align=center;verticalAlign=middle;whiteSpace=wrap;rounded=0;" parent="1" vertex="1">
          <mxGeometry x="174.5" y="105" width="151" height="20" as="geometry" />
        </mxCell>
      </root>
    </mxGraphModel>
  </diagram>
</mxfile>
